<mxfile host="app.diagrams.net" modified="2022-06-09T06:17:41.442Z" agent="5.0 (X11; Linux x86_64) AppleWebKit/537.36 (KHTML, like Gecko) Chrome/77.0.3865.120 Safari/537.36" etag="E3ERKF4FpazC3vEKD06n" version="19.0.3" type="github">
  <diagram id="5CkhVnDri40O_T3qzseA" name="Page-1">
    <mxGraphModel dx="1029" dy="594" grid="0" gridSize="10" guides="1" tooltips="1" connect="1" arrows="1" fold="1" page="1" pageScale="1" pageWidth="827" pageHeight="1169" math="0" shadow="0">
      <root>
        <mxCell id="0" />
        <mxCell id="1" parent="0" />
        <mxCell id="tXFQiEu6R-d1L-qmCyuB-1" value="" style="rounded=0;whiteSpace=wrap;html=1;" vertex="1" parent="1">
          <mxGeometry x="69" y="122" width="524" height="470" as="geometry" />
        </mxCell>
        <mxCell id="tXFQiEu6R-d1L-qmCyuB-3" value="" style="html=1;shadow=0;dashed=0;shape=mxgraph.bootstrap.rrect;rSize=5;fillColor=#ffffff;strokeColor=#999999;" vertex="1" parent="1">
          <mxGeometry x="184" y="193" width="222" height="267" as="geometry" />
        </mxCell>
        <mxCell id="tXFQiEu6R-d1L-qmCyuB-4" value="账号" style="fillColor=none;strokeColor=none;align=left;spacing=20;fontSize=14;" vertex="1" parent="tXFQiEu6R-d1L-qmCyuB-3">
          <mxGeometry width="220" height="40" relative="1" as="geometry">
            <mxPoint y="10" as="offset" />
          </mxGeometry>
        </mxCell>
        <mxCell id="tXFQiEu6R-d1L-qmCyuB-5" value="账号" style="html=1;shadow=0;dashed=0;shape=mxgraph.bootstrap.rrect;rSize=5;fillColor=none;strokeColor=#999999;align=left;spacing=15;fontSize=14;fontColor=#6C767D;" vertex="1" parent="tXFQiEu6R-d1L-qmCyuB-3">
          <mxGeometry width="180" height="30" relative="1" as="geometry">
            <mxPoint x="20" y="50" as="offset" />
          </mxGeometry>
        </mxCell>
        <mxCell id="tXFQiEu6R-d1L-qmCyuB-6" value="密码" style="fillColor=none;strokeColor=none;align=left;spacing=20;fontSize=14;" vertex="1" parent="tXFQiEu6R-d1L-qmCyuB-3">
          <mxGeometry width="220" height="40" relative="1" as="geometry">
            <mxPoint y="90" as="offset" />
          </mxGeometry>
        </mxCell>
        <mxCell id="tXFQiEu6R-d1L-qmCyuB-7" value="密码" style="html=1;shadow=0;dashed=0;shape=mxgraph.bootstrap.rrect;rSize=5;fillColor=none;strokeColor=#999999;align=left;spacing=15;fontSize=14;fontColor=#6C767D;" vertex="1" parent="tXFQiEu6R-d1L-qmCyuB-3">
          <mxGeometry width="180" height="30" relative="1" as="geometry">
            <mxPoint x="20" y="130" as="offset" />
          </mxGeometry>
        </mxCell>
        <mxCell id="tXFQiEu6R-d1L-qmCyuB-9" value="Sign in" style="html=1;shadow=0;dashed=0;shape=mxgraph.bootstrap.rrect;rSize=5;fillColor=#0085FC;strokeColor=none;align=center;fontSize=14;fontColor=#FFFFFF;" vertex="1" parent="tXFQiEu6R-d1L-qmCyuB-3">
          <mxGeometry width="70" height="40" relative="1" as="geometry">
            <mxPoint x="20" y="210" as="offset" />
          </mxGeometry>
        </mxCell>
      </root>
    </mxGraphModel>
  </diagram>
</mxfile>
